<?xml version="1.0" encoding="UTF-8" standalone="no"?>
<!-- Created with Inkscape (http://www.inkscape.org/) -->

<svg
   xmlns:dc="http://purl.org/dc/elements/1.1/"
   xmlns:cc="http://creativecommons.org/ns#"
   xmlns:rdf="http://www.w3.org/1999/02/22-rdf-syntax-ns#"
   xmlns:svg="http://www.w3.org/2000/svg"
   xmlns="http://www.w3.org/2000/svg"
   xmlns:xlink="http://www.w3.org/1999/xlink"
   xmlns:sodipodi="http://sodipodi.sourceforge.net/DTD/sodipodi-0.dtd"
   xmlns:inkscape="http://www.inkscape.org/namespaces/inkscape"
   width="410.74731"
   height="561.96002"
   id="svg2"
   version="1.1"
   inkscape:version="0.48.5 r10040"
   sodipodi:docname="icon.svg"
   style="enable-background:new">
  <defs
     id="defs4">
    <linearGradient
       id="linearGradient4143">
      <stop
         style="stop-color:#ebe7c9;stop-opacity:1;"
         offset="0"
         id="stop4145" />
      <stop
         style="stop-color:#e3d98f;stop-opacity:1;"
         offset="1"
         id="stop4147" />
    </linearGradient>
    <linearGradient
       id="linearGradient4131">
      <stop
         id="stop4139"
         offset="0"
         style="stop-color:#e5d281;stop-opacity:1;" />
      <stop
         style="stop-color:#f1ecd6;stop-opacity:1;"
         offset="0.80921054"
         id="stop4141" />
      <stop
         style="stop-color:#e3d283;stop-opacity:1;"
         offset="1"
         id="stop4135" />
    </linearGradient>
    <filter
       inkscape:collect="always"
       id="filter4063"
       x="-0.016059045"
       width="1.0321181"
       y="-0.22350432"
       height="1.4470086"
       color-interpolation-filters="sRGB">
      <feGaussianBlur
         inkscape:collect="always"
         stdDeviation="1.8323045"
         id="feGaussianBlur4065" />
    </filter>
    <linearGradient
       inkscape:collect="always"
       xlink:href="#linearGradient4131"
       id="linearGradient4137"
       x1="176.22327"
       y1="434.35168"
       x2="456.11557"
       y2="434.35168"
       gradientUnits="userSpaceOnUse" />
    <radialGradient
       inkscape:collect="always"
       xlink:href="#linearGradient4143"
       id="radialGradient4159"
       cx="417.22659"
       cy="475.56116"
       fx="417.22659"
       fy="475.56116"
       r="139.71107"
       gradientTransform="matrix(1.8161038e-8,-0.1666667,0.75758791,8.303925e-8,43.299932,496.71388)"
       gradientUnits="userSpaceOnUse" />
    <filter
       inkscape:collect="always"
       id="filter4197"
       color-interpolation-filters="sRGB">
      <feGaussianBlur
         inkscape:collect="always"
         stdDeviation="1.1326542"
         id="feGaussianBlur4199" />
    </filter>
    <filter
       inkscape:collect="always"
       id="filter4217"
       x="-0.0096354261"
       width="1.0192709"
       y="-0.13410258"
       height="1.2682052"
       color-interpolation-filters="sRGB">
      <feGaussianBlur
         inkscape:collect="always"
         stdDeviation="1.0993827"
         id="feGaussianBlur4219" />
    </filter>
    <filter
       inkscape:collect="always"
       id="filter4257"
       x="-0.023915775"
       width="1.0478317"
       y="-0.17082343"
       height="1.3416468"
       color-interpolation-filters="sRGB">
      <feGaussianBlur
         inkscape:collect="always"
         stdDeviation="1.6797728"
         id="feGaussianBlur4259" />
    </filter>
    <filter
       inkscape:collect="always"
       id="filter4365"
       color-interpolation-filters="sRGB">
      <feGaussianBlur
         inkscape:collect="always"
         stdDeviation="3.63821"
         id="feGaussianBlur4367" />
    </filter>
    <filter
       inkscape:collect="always"
       id="filter4389"
       color-interpolation-filters="sRGB">
      <feBlend
         inkscape:collect="always"
         mode="lighten"
         in2="BackgroundImage"
         id="feBlend4391" />
    </filter>
  </defs>
  <sodipodi:namedview
     id="base"
     pagecolor="#ffffff"
     bordercolor="#666666"
     borderopacity="1.0"
     inkscape:pageopacity="0.0"
     inkscape:pageshadow="2"
     inkscape:zoom="0.60451762"
     inkscape:cx="168.69328"
     inkscape:cy="280.40613"
     inkscape:document-units="px"
     inkscape:current-layer="layer1"
     showgrid="false"
     inkscape:object-nodes="true"
     inkscape:window-width="1445"
     inkscape:window-height="693"
     inkscape:window-x="0"
     inkscape:window-y="1"
     inkscape:window-maximized="0"
     inkscape:object-paths="false"
     showguides="true"
     inkscape:guide-bbox="true"
     fit-margin-top="0"
     fit-margin-right="0"
     fit-margin-left="0"
     fit-margin-bottom="0" />
  <metadata
     id="metadata7">
    <rdf:RDF>
      <cc:Work
         rdf:about="">
        <dc:format>image/svg+xml</dc:format>
        <dc:type
           rdf:resource="http://purl.org/dc/dcmitype/StillImage" />
        <dc:title></dc:title>
      </cc:Work>
    </rdf:RDF>
  </metadata>
  <g
     inkscape:groupmode="layer"
     id="layer3"
     inkscape:label="jam"
     transform="translate(-111.19253,-350.16244)"
     style="display:inline">
    <path
       id="path4316-1-3-6"
       style="fill:none;stroke:#1cc1bb;stroke-width:1px;stroke-linecap:butt;stroke-linejoin:miter;stroke-opacity:1;display:inline"
       d="m 188.36543,467.31456 c 0,18.34569 -25.12151,20.73837 -25.31221,41.13311 l -1e-5,295.23409 c 0,16.77186 4.99669,18.90672 26.07068,30.41417 17.47492,9.54209 67.8655,16.09754 127.44232,16.09754 59.5768,0 109.96729,-6.55549 127.44222,-16.09758 21.07403,-11.50744 26.07075,-13.64231 26.07075,-30.41417 l -1e-5,-295.23408 c -0.19069,-20.39473 -25.31223,-22.78743 -25.31223,-41.13312"
       inkscape:connector-curvature="0"
       sodipodi:nodetypes="ccsscsscc" />
  </g>
  <g
     inkscape:label="glass"
     inkscape:groupmode="layer"
     id="layer1"
     style="display:inline;filter:url(#filter4389)"
     transform="translate(-111.19253,-350.16244)">
    <path
       sodipodi:type="arc"
       style="fill:#f0f4f0;fill-opacity:1;stroke:#1a1a1a;stroke-width:0.722;stroke-linecap:round;stroke-linejoin:round;stroke-miterlimit:6.10000038;stroke-opacity:1;stroke-dasharray:0.0722, 0.0722;stroke-dashoffset:0"
       id="path2985-3-4"
       sodipodi:cx="372.56287"
       sodipodi:cy="434.62009"
       sodipodi:rx="139.71107"
       sodipodi:ry="23.285179"
       d="m 512.27394,434.62009 c 0,12.86005 -62.55078,23.28518 -139.71107,23.28518 -77.1603,0 -139.71108,-10.42513 -139.71108,-23.28518 0,-12.86005 62.55078,-23.28518 139.71108,-23.28518 77.16029,0 139.71107,10.42513 139.71107,23.28518 z"
       transform="translate(-55.996685,65.608327)" />
    <path
       sodipodi:type="arc"
       style="fill:#f0f4f0;fill-opacity:1;stroke:#1a1a1a;stroke-width:0.00335965;stroke-linecap:round;stroke-linejoin:round;stroke-miterlimit:6.10000038;stroke-opacity:1;stroke-dasharray:0.00033596, 0.00033596;stroke-dashoffset:0;display:inline"
       id="path2985-3-4-4"
       sodipodi:cx="372.56287"
       sodipodi:cy="434.62009"
       sodipodi:rx="139.71107"
       sodipodi:ry="23.285179"
       d="m 512.27394,434.62009 c 0,12.86005 -62.55078,23.28518 -139.71107,23.28518 -77.1603,0 -139.71108,-10.42513 -139.71108,-23.28518 0,-12.86005 62.55078,-23.28518 139.71108,-23.28518 77.16029,0 139.71107,10.42513 139.71107,23.28518 z"
       transform="matrix(1.1598431,0,0,1.1619029,-115.5483,-4.7579267)" />
    <path
       sodipodi:type="arc"
       style="fill:#f0f4f0;fill-opacity:1;stroke:#1a1a1a;stroke-width:0.00335965;stroke-linecap:round;stroke-linejoin:round;stroke-miterlimit:6.10000038;stroke-opacity:1;stroke-dasharray:0.00033596, 0.00033596;stroke-dashoffset:0;display:inline"
       id="path2985-3-4-4-7"
       sodipodi:cx="372.56287"
       sodipodi:cy="434.62009"
       sodipodi:rx="139.71107"
       sodipodi:ry="23.285179"
       d="m 512.27394,434.62009 c 0,12.86005 -62.55078,23.28518 -139.71107,23.28518 -77.1603,0 -139.71108,-10.42513 -139.71108,-23.28518 0,-12.86005 62.55078,-23.28518 139.71108,-23.28518 77.16029,0 139.71107,10.42513 139.71107,23.28518 z"
       transform="matrix(1.1598431,0,0,1.1619029,-115.54829,306.62054)" />
    <path
       id="path4316-1-3"
       style="fill:#b0ffff;fill-opacity:0.18867924;stroke:#1cc1bb;stroke-width:1;stroke-linecap:butt;stroke-linejoin:miter;stroke-miterlimit:6.10000038;stroke-opacity:1;stroke-dasharray:0.1, 0.1;stroke-dashoffset:0;display:inline;filter:url(#filter4365)"
       d="m 181.35046,456.84604 c 0,19.34887 -26.49613,21.87241 -26.69727,43.38237 l -1e-5,311.37848 c 0,17.689 5.27016,19.94061 27.49726,32.07728 18.43114,10.06395 71.57898,16.97782 134.41575,16.97782 62.83677,0 115.98461,-6.91391 134.41575,-16.97786 22.2271,-12.13667 27.49726,-14.38828 27.49726,-32.07728 l -10e-6,-311.37848 c -0.20114,-21.50996 -26.69727,-24.0335 -26.69727,-43.38237"
       inkscape:connector-curvature="0"
       sodipodi:nodetypes="ccsscsscc" />
  </g>
  <g
     inkscape:groupmode="layer"
     id="layer2"
     inkscape:label="lid"
     style="display:inline"
     transform="translate(-111.19253,-350.16244)">
    <g
       id="g4369"
       inkscape:transform-center-x="140.80731"
       inkscape:transform-center-y="-22.809172">
      <path
         sodipodi:nodetypes="sssssscscssccss"
         inkscape:connector-curvature="0"
         d="m 455.88049,452.62903 c 0,-47.21274 0,-5.10768 0,-8.74522 0,-3.18336 -1.98349,-1.88108 -1.91649,-4.62798 0.0826,-3.38847 2.03403,-1.68905 2.03403,-4.38832 0,-2.69927 -1.91649,-1.15018 -1.91649,-3.74397 0,-2.59379 2.03403,-1.53253 2.03403,-3.83683 0,-5.8037 0,-11.21239 0,-11.21239 0,-12.86005 -62.55078,-23.28518 -139.94615,-23.28518 -77.39537,0 -139.94615,10.42513 -139.94615,23.28518 0,0 0,8.03333 0,13.83703 0,2.3043 2.03403,1.24304 2.03403,3.83683 0,2.59379 -1.91649,1.0447 -1.91649,3.74397 l 0.11754,15.13688 c 0,12.86005 62.55078,23.28518 139.71107,23.28518 77.16029,0 139.71107,-10.42513 139.71107,-23.28518 z"
         style="fill:url(#linearGradient4137);fill-opacity:1;stroke:none;display:inline"
         id="path2985-6" />
      <path
         transform="translate(-56.304578,-19.175462)"
         d="m 512.27394,434.62009 c 0,12.86005 -62.55078,23.28518 -139.71107,23.28518 -77.1603,0 -139.71108,-10.42513 -139.71108,-23.28518 0,-12.86005 62.55078,-23.28518 139.71108,-23.28518 77.16029,0 139.71107,10.42513 139.71107,23.28518 z"
         sodipodi:ry="23.285179"
         sodipodi:rx="139.71107"
         sodipodi:cy="434.62009"
         sodipodi:cx="372.56287"
         id="path2985-3-4-1"
         style="fill:url(#radialGradient4159);fill-opacity:1;stroke:none;display:inline"
         sodipodi:type="arc" />
      <path
         transform="matrix(0.75857096,0,0,-0.6326002,33.78913,689.01508)"
         d="m 512.27394,434.62009 c 0,12.86005 -62.55078,23.28518 -139.71107,23.28518 -77.1603,0 -139.71108,-10.42513 -139.71108,-23.28518 0,-12.86005 62.55078,-23.28518 139.71108,-23.28518 77.16029,0 139.71107,10.42513 139.71107,23.28518 z"
         sodipodi:ry="23.285179"
         sodipodi:rx="139.71107"
         sodipodi:cy="434.62009"
         sodipodi:cx="372.56287"
         id="path2985-3-4-5-1"
         style="fill:none;stroke:#b69230;stroke-width:1.04225612;stroke-linecap:round;stroke-linejoin:round;stroke-miterlimit:6.80000019;stroke-opacity:1;stroke-dasharray:none;stroke-dashoffset:0;display:inline;filter:url(#filter4197)"
         sodipodi:type="arc" />
      <path
         sodipodi:nodetypes="csc"
         inkscape:connector-curvature="0"
         id="path2985-3-4-3"
         d="m 508.38105,440.07853 c -18.08769,12.50172 -93.55853,20.19254 -168.56885,17.17792 -54.94289,-2.20812 -96.49159,-9.7158 -105.26631,-19.0212"
         style="fill:none;stroke:#b69230;stroke-width:1.1235112;stroke-linecap:round;stroke-linejoin:round;stroke-miterlimit:6.80000019;stroke-opacity:1;stroke-dasharray:none;stroke-dashoffset:0;display:inline;filter:url(#filter4217)"
         transform="matrix(0.99731176,0,0,1,-55.156827,-18.545768)" />
      <path
         sodipodi:nodetypes="csc"
         inkscape:connector-curvature="0"
         id="path2985-3-4-3-6"
         d="m 508.38105,440.07853 c -18.08769,12.50172 -93.55853,24.19254 -168.56885,21.17792 -54.94289,-2.20812 -95.31059,-8.97966 -104.08531,-18.28506"
         style="fill:none;stroke:#70511e;stroke-width:0.92324179;stroke-linecap:round;stroke-linejoin:round;stroke-miterlimit:6.80000019;stroke-opacity:1;stroke-dasharray:none;stroke-dashoffset:0;display:inline;filter:url(#filter4063)"
         transform="matrix(0.99731176,0,0,1,-55.102568,-7.9561138)" />
      <path
         sodipodi:nodetypes="cc"
         inkscape:connector-curvature="0"
         id="path2985-3-4-3-6-6"
         d="m 508.38105,440.07853 c -18.08769,12.50172 -93.55853,26.19254 -168.56885,23.17792"
         style="fill:none;stroke:#70511e;stroke-width:0.92324179;stroke-linecap:round;stroke-linejoin:round;stroke-miterlimit:6.80000019;stroke-opacity:1;stroke-dasharray:none;stroke-dashoffset:0;display:inline;filter:url(#filter4257)"
         transform="matrix(0.99731176,0,0,1,-55.102568,2.0438862)" />
    </g>
  </g>
</svg>
